<?xml version="1.0" standalone="no"?>
<!DOCTYPE svg PUBLIC "-//W3C//DTD SVG 20010904//EN"
 "http://www.w3.org/TR/2001/REC-SVG-20010904/DTD/svg10.dtd">
<svg version="1.0" xmlns="http://www.w3.org/2000/svg"
 width="1349.000000pt" height="1349.000000pt" viewBox="0 0 1349.000000 1349.000000"
 preserveAspectRatio="xMidYMid meet">
<metadata>
Created by potrace 1.11, written by Peter Selinger 2001-2013
</metadata>
<g transform="translate(0.000000,1349.000000) scale(0.100000,-0.100000)"
fill="#000000" stroke="none">
<path d="M4151 13073 c-55 -11 -69 -66 -33 -127 12 -20 22 -43 22 -51 0 -7 3
-15 8 -17 4 -1 28 -43 54 -93 25 -49 69 -135 98 -190 29 -55 59 -113 67 -130
8 -16 19 -38 25 -49 5 -10 37 -71 70 -135 115 -222 201 -387 253 -486 29 -55
90 -172 135 -260 197 -381 254 -493 276 -533 13 -23 24 -45 24 -47 0 -2 -19
-2 -42 1 -211 24 -378 164 -395 331 -7 67 -55 165 -98 197 -51 39 -130 63
-201 61 -61 -2 -84 -9 -84 -25 0 -5 10 -12 23 -16 52 -16 104 -44 128 -71 51
-56 54 -65 56 -140 2 -78 9 -163 17 -198 15 -62 39 -147 56 -192 35 -95 118
-250 154 -290 6 -6 29 -33 51 -60 68 -84 181 -164 281 -201 l29 -10 -30 -1
c-16 0 -50 4 -75 9 -25 4 -46 7 -48 5 -5 -5 110 -71 148 -84 19 -7 44 -17 55
-21 52 -21 120 -29 233 -27 l123 1 38 -74 c52 -104 195 -380 243 -468 22 -41
38 -75 35 -78 -2 -2 -21 5 -43 16 -78 40 -128 60 -149 60 -11 0 -25 4 -31 9
-32 29 -257 44 -339 22 -22 -6 -65 -10 -95 -10 -68 0 -87 -4 -138 -30 -43 -22
-98 -75 -107 -103 -3 -9 -39 -49 -79 -90 -112 -112 -194 -250 -227 -383 -9
-36 -19 -52 -41 -64 -79 -43 -207 -134 -239 -168 -19 -21 -40 -51 -47 -68 -31
-79 -35 -91 -37 -100 -2 -5 -10 -37 -18 -70 -9 -33 -19 -80 -22 -105 -4 -24
-8 -47 -10 -50 -15 -25 -23 -394 -10 -495 3 -25 8 -66 11 -92 3 -27 12 -77 20
-112 14 -58 13 -70 -2 -131 l-18 -68 -180 63 c-196 68 -364 129 -411 149 -16
8 -73 30 -125 51 -361 142 -1000 445 -1202 571 -52 33 -82 36 -113 13 l-25
-21 2 -3800 c3 -3748 3 -3800 22 -3814 11 -8 29 -14 41 -14 21 0 230 86 317
131 10 5 22 9 28 9 5 0 34 11 64 25 30 14 58 25 61 25 4 0 21 6 38 14 81 35
292 114 362 136 22 7 54 18 70 25 35 16 360 122 490 161 99 29 321 93 345 98
8 2 53 14 100 26 47 12 96 24 109 27 14 2 28 6 33 9 4 3 8 -232 8 -521 0 -362
3 -524 10 -520 6 4 169 61 363 127 194 66 424 144 512 174 88 30 185 63 215
74 30 10 201 68 380 130 438 150 773 264 902 308 89 30 111 34 130 25 24 -12
63 -25 88 -29 8 -2 23 -7 35 -13 11 -6 61 -24 110 -40 50 -16 223 -76 385
-131 248 -86 322 -111 370 -125 3 -1 12 -4 20 -8 32 -12 166 -59 180 -62 8 -2
62 -20 120 -41 58 -20 195 -67 305 -104 110 -38 319 -110 465 -160 146 -50
272 -93 280 -95 8 -2 16 -4 18 -5 1 -2 6 -3 11 -4 5 0 13 -4 17 -9 10 -9 44
-9 45 1 0 4 1 237 1 518 l1 511 76 -19 c72 -19 85 -22 129 -32 9 -2 43 -12 76
-21 32 -9 64 -18 70 -19 15 -3 90 -25 146 -41 113 -34 286 -88 300 -93 8 -3
17 -6 20 -7 98 -25 655 -229 840 -308 14 -6 27 -11 30 -11 7 -2 172 -72 240
-103 80 -36 113 -40 139 -14 l21 21 0 3794 c0 3436 -1 3796 -16 3810 -8 9 -21
17 -27 17 -7 1 -19 2 -27 3 -8 1 -19 -2 -25 -5 -117 -74 -572 -303 -825 -416
-80 -35 -159 -70 -175 -78 -28 -13 -84 -36 -95 -40 -10 -3 -46 -18 -85 -35
-22 -10 -51 -21 -65 -25 -14 -4 -29 -11 -35 -15 -5 -4 -35 -15 -65 -25 -30
-10 -59 -21 -65 -25 -5 -5 -48 -22 -95 -38 -382 -136 -370 -132 -393 -121
-137 71 -425 347 -622 594 -66 83 -127 160 -135 172 -13 19 -20 21 -63 14 -53
-9 -50 -11 -84 62 -63 135 -170 247 -299 312 -25 13 -61 42 -81 64 -72 84
-181 111 -270 66 -37 -19 -58 -24 -98 -20 -64 6 -148 33 -180 60 l-25 20 43
45 c23 25 67 73 96 108 30 34 61 62 71 62 27 0 102 53 147 104 154 175 201
504 95 660 -15 21 -27 50 -28 65 -1 14 -3 26 -4 26 -1 0 -3 18 -5 40 -4 68
-17 138 -32 185 -20 62 -20 64 -22 72 -2 10 -48 93 -79 143 -51 81 -162 178
-295 259 -15 9 -32 27 -36 39 -10 25 -37 51 -63 60 -14 5 -18 19 -19 69 -2 66
-2 73 -13 153 -62 446 -338 698 -766 698 -199 0 -378 -64 -584 -210 -82 -59
-351 -319 -395 -383 -22 -33 -96 -100 -110 -100 -3 0 -41 57 -85 128 -107 173
-155 251 -181 292 -88 137 -145 230 -145 235 0 3 -15 27 -33 53 -18 26 -41 64
-52 85 -11 20 -22 37 -26 37 -4 0 -9 8 -13 18 -3 9 -14 29 -23 44 -26 41 -235
374 -254 406 -60 99 -303 490 -367 590 -23 37 -45 74 -49 82 -6 14 -52 62 -56
59 -1 -1 -13 -4 -26 -6z m2541 -2353 c-18 -11 -35 -20 -38 -20 -13 0 -103 -68
-152 -114 -57 -55 -124 -153 -136 -199 -6 -26 -9 -28 -39 -21 -42 10 -73 9
-125 -5 -47 -13 -134 -82 -151 -121 -7 -14 -20 -35 -29 -48 l-18 -23 -31 48
c-64 100 -84 135 -81 138 2 1 48 26 103 54 55 29 154 86 220 127 196 122 316
177 415 190 18 3 36 7 39 9 2 3 16 5 30 5 26 0 26 0 -7 -20z m-1114 -2520 c26
-52 48 -98 50 -102 5 -11 -36 -10 -58 2 -25 14 -60 174 -50 230 1 8 5 4 7 -10
2 -14 25 -68 51 -120z"/>
</g>
</svg>
